<svg width="54" height="54" viewBox="0 0 54 54" fill="none" xmlns="http://www.w3.org/2000/svg">
  <rect width="54" height="54" rx="8" fill="#2C3639"/>
  <path d="M18.9082 11.1035H11.8242V43.4004H18.9082V46.2598H8.3916V8.24414H18.9082V11.1035ZM36.376 38.4277C35.584 38.6624 34.5718 38.8972 33.3398 39.1318C32.108 39.3665 30.6708 39.4844 29.0283 39.4844C27.5618 39.4844 26.227 39.2349 25.0244 38.7363C23.8218 38.2377 22.795 37.5333 21.9443 36.624C21.0937 35.6854 20.4332 34.5562 19.9639 33.2363C19.4945 31.9163 19.2598 30.4347 19.2598 28.792C19.2598 27.2082 19.4508 25.771 19.832 24.4805C20.2427 23.1605 20.8291 22.0305 21.5918 21.0918C22.3545 20.1531 23.2643 19.4196 24.3203 18.8916C25.4054 18.3638 26.6373 18.0997 28.0156 18.0996C29.101 18.0996 30.0546 18.2321 30.876 18.4961C31.6972 18.76 32.313 19.0388 32.7236 19.332V9.12402L36.376 8.50781V38.4277ZM44.7803 18.584C45.1322 19.8746 45.5278 21.2386 45.9678 22.6758C46.4371 24.1131 46.9213 25.5509 47.4199 26.9883C47.9186 28.4255 48.4174 29.8187 48.916 31.168C49.444 32.488 49.9574 33.6764 50.4561 34.7324C50.9547 33.6764 51.4681 32.488 51.9961 31.168C52.5534 29.8187 53.0961 28.4255 53.624 26.9883C53.7511 26.6424 53.8763 26.2961 54 25.9502V34.8799C53.3207 36.3421 52.6684 37.7159 52.04 39H48.7402C47.3616 36.2427 45.9676 33.104 44.5596 29.584C43.1516 26.0641 41.9056 22.3972 40.8203 18.584H44.7803ZM28.4561 21.3115C27.4882 21.3115 26.6522 21.5026 25.9482 21.8838C25.2737 22.2651 24.7163 22.7933 24.2764 23.4678C23.8364 24.1131 23.513 24.9052 23.3076 25.8438C23.1023 26.7531 23 27.736 23 28.792C23 31.168 23.5572 33.0013 24.6719 34.292C25.7865 35.5827 27.239 36.2275 29.0283 36.2275C29.9375 36.2275 30.7005 36.1837 31.3164 36.0957C31.9613 36.0078 32.4303 35.92 32.7236 35.832V22.8965C32.313 22.5152 31.7119 22.1625 30.9199 21.8398C30.128 21.4879 29.3067 21.3115 28.4561 21.3115Z" fill="white"/>
  <rect width="54" height="54" rx="8" fill="url(#paint0_linear_1_8)"/>
  <defs>
    <linearGradient id="paint0_linear_1_8" x1="0" y1="27" x2="54" y2="27" gradientUnits="userSpaceOnUse">
      <stop offset="0.74" stop-color="#2C3639" stop-opacity="0"/>
      <stop offset="0.88" stop-color="#2C3639"/>
    </linearGradient>
  </defs>
</svg>
