<svg width="50" height="50" viewBox="0 0 50 50" fill="none" xmlns="http://www.w3.org/2000/svg">
  <rect width="50" height="50" rx="8" fill="#2C3639"/>
  <path d="M16.9082 9.10352H9.82422V41.4004H16.9082V44.2598H6.3916V6.24414H16.9082V9.10352ZM34.376 36.4277C33.584 36.6624 32.5718 36.8972 31.3398 37.1318C30.108 37.3665 28.6708 37.4844 27.0283 37.4844C25.5618 37.4844 24.227 37.2349 23.0244 36.7363C21.8218 36.2377 20.795 35.5333 19.9443 34.624C19.0937 33.6854 18.4332 32.5562 17.9639 31.2363C17.4945 29.9163 17.2598 28.4347 17.2598 26.792C17.2598 25.2082 17.4508 23.771 17.832 22.4805C18.2427 21.1605 18.8291 20.0305 19.5918 19.0918C20.3545 18.1531 21.2643 17.4196 22.3203 16.8916C23.4054 16.3638 24.6373 16.0997 26.0156 16.0996C27.101 16.0996 28.0546 16.2321 28.876 16.4961C29.6972 16.76 30.313 17.0388 30.7236 17.332V7.12402L34.376 6.50781V36.4277ZM42.7803 16.584C43.1322 17.8746 43.5278 19.2386 43.9678 20.6758C44.4371 22.1131 44.9213 23.5509 45.4199 24.9883C45.9186 26.4255 46.4174 27.8187 46.916 29.168C47.444 30.488 47.9574 31.6764 48.4561 32.7324C48.9547 31.6764 49.4681 30.488 49.9961 29.168C49.9974 29.1647 49.9987 29.1614 50 29.1582V37H46.7402C45.3616 34.2427 43.9676 31.104 42.5596 27.584C41.1516 24.0641 39.9056 20.3972 38.8203 16.584H42.7803ZM26.4561 19.3115C25.4882 19.3115 24.6522 19.5026 23.9482 19.8838C23.2737 20.2651 22.7163 20.7933 22.2764 21.4678C21.8364 22.1131 21.513 22.9052 21.3076 23.8438C21.1023 24.7531 21 25.736 21 26.792C21 29.168 21.5572 31.0013 22.6719 32.292C23.7865 33.5827 25.239 34.2275 27.0283 34.2275C27.9375 34.2275 28.7005 34.1837 29.3164 34.0957C29.9613 34.0078 30.4303 33.92 30.7236 33.832V20.8965C30.313 20.5152 29.7119 20.1625 28.9199 19.8398C28.128 19.4879 27.3067 19.3115 26.4561 19.3115Z" fill="white"/>
  <rect width="50" height="50" rx="8" fill="url(#paint0_linear_1_8)"/>
  <defs>
    <linearGradient id="paint0_linear_1_8" x1="0" y1="25" x2="50" y2="25" gradientUnits="userSpaceOnUse">
      <stop offset="0.74" stop-color="#2C3639" stop-opacity="0"/>
      <stop offset="0.88" stop-color="#2C3639"/>
    </linearGradient>
  </defs>
</svg>
