<svg width="62" height="62" viewBox="0 0 62 62" fill="none" xmlns="http://www.w3.org/2000/svg">
  <rect width="62" height="62" rx="8" fill="#2C3639"/>
  <path d="M22.9082 15.1035H15.8242V47.4004H22.9082V50.2598H12.3916V12.2441H22.9082V15.1035ZM40.376 42.4277C39.584 42.6624 38.5718 42.8972 37.3398 43.1318C36.108 43.3665 34.6708 43.4844 33.0283 43.4844C31.5618 43.4844 30.227 43.2349 29.0244 42.7363C27.8218 42.2377 26.795 41.5333 25.9443 40.624C25.0937 39.6854 24.4332 38.5562 23.9639 37.2363C23.4945 35.9163 23.2598 34.4347 23.2598 32.792C23.2598 31.2082 23.4508 29.771 23.832 28.4805C24.2427 27.1605 24.8291 26.0305 25.5918 25.0918C26.3545 24.1531 27.2643 23.4196 28.3203 22.8916C29.4054 22.3638 30.6373 22.0997 32.0156 22.0996C33.101 22.0996 34.0546 22.2321 34.876 22.4961C35.6972 22.76 36.313 23.0388 36.7236 23.332V13.124L40.376 12.5078V42.4277ZM48.7803 22.584C49.1322 23.8746 49.5278 25.2386 49.9678 26.6758C50.4371 28.1131 50.9213 29.5509 51.4199 30.9883C51.9186 32.4255 52.4174 33.8187 52.916 35.168C53.444 36.488 53.9574 37.6764 54.4561 38.7324C54.9547 37.6764 55.4681 36.488 55.9961 35.168C56.5534 33.8187 57.0961 32.4255 57.624 30.9883C58.152 29.5509 58.6508 28.1131 59.1201 26.6758C59.6187 25.2385 60.0445 23.8746 60.3965 22.584H62V29.2188C61.4453 30.6932 60.8818 32.1486 60.3076 33.584C59.6037 35.3145 58.8856 36.9718 58.1523 38.5557C57.419 40.1397 56.7147 41.6213 56.04 43H52.7402C51.3616 40.2427 49.9676 37.104 48.5596 33.584C47.1516 30.0641 45.9056 26.3972 44.8203 22.584H48.7803ZM32.4561 25.3115C31.4882 25.3115 30.6522 25.5026 29.9482 25.8838C29.2737 26.2651 28.7163 26.7933 28.2764 27.4678C27.8364 28.1131 27.513 28.9052 27.3076 29.8438C27.1023 30.7531 27 31.736 27 32.792C27 35.168 27.5572 37.0013 28.6719 38.292C29.7865 39.5827 31.239 40.2275 33.0283 40.2275C33.9375 40.2275 34.7005 40.1837 35.3164 40.0957C35.9613 40.0078 36.4303 39.92 36.7236 39.832V26.8965C36.313 26.5152 35.7119 26.1625 34.9199 25.8398C34.128 25.4879 33.3067 25.3115 32.4561 25.3115Z" fill="white"/>
  <rect width="62" height="62" rx="8" fill="url(#paint0_linear_1_8)"/>
  <defs>
    <linearGradient id="paint0_linear_1_8" x1="0" y1="31" x2="62" y2="31" gradientUnits="userSpaceOnUse">
      <stop offset="0.74" stop-color="#2C3639" stop-opacity="0"/>
      <stop offset="0.88" stop-color="#2C3639"/>
    </linearGradient>
  </defs>
</svg>
